<svg fill="none" height="12" viewBox="0 0 13 12" width="13" xmlns="http://www.w3.org/2000/svg"><path d="m9.33333 12.0002c-1.10246-.001-2.1878-.2735-3.16-.7933l-.3-.1667c-2.07283-1.11448-3.7722-2.81388-4.886663-4.88668l-.166667-.3c-.533453-.97773-.81524625-2.07288-.81999959-3.18668v-.44666c-.00028-.35536.14130659-.69614.39333359-.94667l1.126666-1.126665c.10942-.1102667.26387-.1634133.41797-.14382666.1541.01958666.29035.10969366.3687.24382666l1.5 2.573335c.15168.26192.10788.59317-.10667.80666l-1.26 1.26002c-.10464.10346-.12902.26333-.06.39333l.23333.44c.83803 1.55227 2.11287 2.8248 3.66667 3.66l.44.24c.13.069.28987.0446.39333-.06l1.26-1.26c.21347-.21453.54474-.25833.80667-.10667l2.5733 1.5c.1342.07834.2243.2146.2438.36868.0196.1541-.0335.3086-.1438.418l-1.1266 1.1267c-.2506.252-.5914.3936-.9467.3933z" fill="#0b1a26"/></svg>