<svg width="155" height="36" viewBox="0 0 155 36" fill="none" xmlns="http://www.w3.org/2000/svg">
<g clip-path="url(#clip0_3210_3647)">
<path fill-rule="evenodd" clip-rule="evenodd" d="M16.8668 3.77929L17.2743 3.77395C17.775 3.78141 18.2655 3.91643 18.6994 4.16622L28.2362 9.67801C28.6692 9.92682 29.0292 10.2854 29.2797 10.7175L29.4859 11.0747C29.7349 11.5077 29.8654 11.9987 29.8644 12.4981L29.857 23.5203C29.8567 24.018 29.7256 24.507 29.4771 24.9383L29.2687 25.2885C29.0199 25.7215 28.6613 26.0815 28.2292 26.332L18.685 31.8423C18.252 32.0913 17.761 32.2218 17.2616 32.2208L16.8542 32.2261C16.3575 32.2177 15.8705 32.0872 15.4361 31.8462L5.89222 26.3221C5.45574 26.0777 5.09478 25.7181 4.84871 25.2825L4.64962 24.9377C4.40059 24.5047 4.27001 24.0137 4.27112 23.5142L4.27849 12.4921C4.27188 11.9935 4.4034 11.5026 4.65845 11.0741L4.85967 10.7116C5.11113 10.2806 5.46901 9.92125 5.8992 9.66811L15.4434 4.15779C15.8764 3.90878 16.3673 3.77821 16.8668 3.77929ZM27.0229 12.4967L26.8167 12.1396L18.4877 7.32616L18.4927 17.1753L27.0198 22.1042L27.0229 12.4967ZM7.11692 22.1011L7.12 12.4936L7.32122 12.1311L15.6462 7.3247L15.6389 17.1809L7.11692 22.1011Z" fill="#F4B841"/>
</g>
<path d="M52.5088 17.437C53.6812 16.5414 54.2673 15.3387 54.2673 13.8546C54.2673 12.396 53.7078 11.1933 52.6154 10.2465C51.523 9.29973 50.1908 8.81354 48.5922 8.81354H41.2385V26.7259H49.1517C50.777 26.7259 52.1625 26.2397 53.2815 25.2673C54.4006 24.2949 54.9601 23.041 54.9601 21.5313C54.9601 19.7145 54.1341 18.3327 52.5088 17.437ZM48.5922 12.1145C49.7645 12.1145 50.5905 12.959 50.5905 14.0849C50.5905 15.2108 49.7379 16.0552 48.5922 16.0552H44.9154V12.1145H48.5922ZM44.9154 23.4249V19.2027H49.1517C50.404 19.2027 51.3099 20.0983 51.3099 21.301C51.3099 22.5293 50.404 23.4249 49.1517 23.4249H44.9154Z" fill="white"/>
<path d="M75.0886 17.7697C75.0886 15.1596 74.1294 12.959 72.2377 11.1677C70.346 9.35091 68.0813 8.45529 65.3903 8.45529C62.6993 8.45529 60.4345 9.35091 58.5428 11.1677C56.6511 12.959 55.7186 15.1596 55.7186 17.7697C55.7186 20.3798 56.6511 22.5804 58.5428 24.3973C60.4345 26.1885 62.6993 27.0841 65.3903 27.0841C67.0688 27.0841 68.6408 26.7003 70.0796 25.9326L72.1045 27.9541L74.7156 25.7279L72.7972 23.8087C74.3159 22.0942 75.0886 20.0983 75.0886 17.7697ZM65.3903 23.6296C63.6851 23.6296 62.2463 23.0666 61.1006 21.9663C59.9549 20.866 59.3688 19.4586 59.3688 17.7697C59.3688 16.0552 59.9549 14.6478 61.1006 13.5475C62.2463 12.4472 63.6851 11.8842 65.3903 11.8842C67.0955 11.8842 68.5342 12.4472 69.6799 13.5475C70.8256 14.6478 71.4118 16.0552 71.4118 17.7697C71.4118 19.0747 71.0388 20.2518 70.2927 21.2754L67.0156 18L64.4045 20.2262L67.4685 23.2969C66.7758 23.5272 66.083 23.6296 65.3903 23.6296Z" fill="white"/>
<path d="M97.0664 26.7259L92.9366 19.9704C95.0948 19.0236 96.5335 16.9764 96.5335 14.7502C96.5335 13.1125 95.9207 11.7051 94.7218 10.5536C93.5228 9.40209 92.0574 8.81354 90.3255 8.81354H82.8653V26.7259H86.5421V20.5077H89.3397L93.0965 26.7259H97.0664ZM90.3255 12.1145C91.711 12.1145 92.8567 13.2916 92.8567 14.7502C92.8567 16.2088 91.711 17.4114 90.3255 17.4114H86.5421V12.1145H90.3255Z" fill="white"/>
<path d="M110.545 21.6848C110.625 21.1986 110.678 20.7636 110.678 20.3286C110.678 18.4094 110.038 16.8229 108.759 15.5179C107.507 14.2128 105.882 13.5731 103.937 13.5731C101.885 13.5731 100.18 14.2128 98.8746 15.5179C97.5691 16.7973 96.903 18.4094 96.903 20.3286C96.903 22.2734 97.5691 23.8855 98.9013 25.1649C100.233 26.4444 101.992 27.0841 104.203 27.0841C106.761 27.0841 108.706 26.1629 110.012 24.3461L107.241 22.8107C106.575 23.6552 105.562 24.0902 104.257 24.0902C102.205 24.0902 100.953 23.2969 100.5 21.6848H110.545ZM100.447 19.1259C100.846 17.4882 102.099 16.5414 103.937 16.5414C105.509 16.5414 106.841 17.3859 107.241 19.1259H100.447Z" fill="white"/>
<path d="M119.685 13.5731C117.873 13.5731 116.541 14.1616 115.715 15.3643V13.9313H112.278V26.7259H115.715V19.8168C115.715 17.6929 116.861 16.6438 118.646 16.6438C120.244 16.6438 121.284 17.565 121.284 19.2794V26.7259H124.721V18.87C124.721 17.2067 124.241 15.9273 123.282 14.9805C122.349 14.0337 121.15 13.5731 119.685 13.5731Z" fill="white"/>
<path d="M134.476 13.9313H131.465V10.3489L128.028 11.3469V13.9313H125.71V17.1044H128.028V22.4269C128.028 25.9326 129.76 27.2376 134.476 26.7259V23.7319C132.505 23.8343 131.465 23.8087 131.465 22.4269V17.1044H134.476V13.9313Z" fill="white"/>
<path d="M145.808 15.4411C144.769 14.1872 143.331 13.5731 141.466 13.5731C139.68 13.5731 138.162 14.2384 136.883 15.5434C135.631 16.8485 134.991 18.435 134.991 20.3286C134.991 22.2222 135.631 23.8343 136.883 25.1393C138.162 26.4444 139.68 27.0841 141.466 27.0841C143.331 27.0841 144.769 26.47 145.808 25.2161V26.7259H149.246V13.9313H145.808V15.4411ZM139.467 22.9387C138.775 22.2478 138.428 21.3777 138.428 20.3286C138.428 19.2794 138.775 18.4094 139.467 17.7441C140.16 17.0532 141.039 16.7205 142.105 16.7205C143.171 16.7205 144.05 17.0532 144.743 17.7441C145.462 18.4094 145.808 19.2794 145.808 20.3286C145.808 21.3777 145.462 22.2478 144.743 22.9387C144.05 23.604 143.171 23.9366 142.105 23.9366C141.039 23.9366 140.16 23.604 139.467 22.9387Z" fill="white"/>
<path d="M155 26.7259V8.04587H151.563V26.7259H155Z" fill="white"/>
<defs>
<clipPath id="clip0_3210_3647">
<rect width="34.1284" height="34.1284" fill="white" transform="translate(0 0.935791)"/>
</clipPath>
</defs>
</svg>
